<svg width="13" height="12" viewBox="0 0 13 12" fill="none" xmlns="http://www.w3.org/2000/svg">
<path d="M1.30327 6.52641H9.85447L6.11858 9.86535C5.82002 10.1322 5.82002 10.5701 6.11858 10.8369C6.41715 11.1038 6.89944 11.1038 7.19801 10.8369L12.243 6.32799C12.5415 6.06114 12.5415 5.63009 12.243 5.36325L7.20566 0.847461C7.06263 0.71934 6.86845 0.647339 6.66595 0.647339C6.46345 0.647339 6.26927 0.71934 6.12624 0.847461C5.82767 1.1143 5.82767 1.54536 6.12624 1.8122L9.85447 5.15799H1.30327C0.882217 5.15799 0.53772 5.46588 0.53772 5.8422C0.53772 6.21851 0.882217 6.52641 1.30327 6.52641Z" fill="white"/>
</svg>
