<svg width="35" height="32" viewBox="0 0 35 32" fill="none" xmlns="http://www.w3.org/2000/svg">
<path d="M14.2188 3C10.0033 3 6.5625 6.14585 6.5625 10C6.5625 12.4088 7.90908 14.5521 9.94629 15.8125C6.04473 17.3423 3.28125 20.8813 3.28125 25H5.46875C5.46875 20.5693 9.37271 17 14.2188 17C16.566 17 18.6626 17.8785 20.2344 19.25L15.3125 23.75L15.0732 23.9688L15.0049 24.2812L14.2529 27.8125L13.9111 29.2812L15.5176 28.9688L19.3799 28.2812L19.7217 28.2188L19.9609 28L30.7617 18.125C32.0326 16.963 32.0326 15.037 30.7617 13.875C30.1263 13.294 29.2787 13 28.4375 13C27.6113 13 26.7787 13.2832 26.1475 13.8438L26.1133 13.875L21.8066 17.8125C20.8553 16.9746 19.724 16.2948 18.4912 15.8125C20.5284 14.5521 21.875 12.4088 21.875 10C21.875 6.14585 18.4342 3 14.2188 3ZM14.2188 5C17.252 5 19.6875 7.22673 19.6875 10C19.6875 12.7733 17.252 15 14.2188 15C11.1855 15 8.75 12.7733 8.75 10C8.75 7.22673 11.1855 5 14.2188 5ZM28.4375 15C28.7141 15 29.006 15.0822 29.2236 15.2812C29.659 15.6793 29.659 16.2895 29.2236 16.6875L18.6279 26.375L16.6797 26.75L17.0898 24.9688L27.6855 15.2812C27.9032 15.0822 28.1609 15 28.4375 15Z" fill="#314254"/>
</svg>
