<svg width="26" height="24" viewBox="0 0 26 24" fill="none" xmlns="http://www.w3.org/2000/svg">
<path fill-rule="evenodd" clip-rule="evenodd" d="M20.876 8.83V19.59L16.8782 15.75C17.6193 14.67 17.9533 13.31 17.6089 11.85C17.16 9.92 15.4691 8.4 13.4337 8.07C9.90563 7.5 6.88905 10.33 7.34832 13.68C7.68234 16.03 9.80125 17.88 12.2751 17.99C13.4337 18.05 14.5088 17.73 15.4065 17.17L20.0305 21.6C19.6756 21.85 19.2581 22 18.7884 22H6.25233C5.10415 22 4.17517 21.1 4.17517 20L4.18561 4C4.18561 2.9 5.11459 2 6.26277 2H13.7468C14.3 2 14.8324 2.21 15.2186 2.59L20.2601 7.42C20.6568 7.79 20.876 8.3 20.876 8.83ZM12.5256 16C10.7929 16 9.39417 14.66 9.39417 13C9.39417 11.34 10.7929 10 12.5256 10C14.2583 10 15.657 11.34 15.657 13C15.657 14.66 14.2583 16 12.5256 16Z" fill="#314254"/>
</svg>
