<svg width="24" height="28" viewBox="0 0 24 28" fill="none" xmlns="http://www.w3.org/2000/svg">
<path d="M14.8013 6.7959H3.78208C3.38397 6.7959 3.05695 7.12795 3.05695 7.53218C3.05695 7.93641 3.38397 8.26846 3.78208 8.26846H14.8013C15.1994 8.26846 15.5265 7.93641 15.5265 7.53218C15.5336 7.12795 15.2066 6.7959 14.8013 6.7959Z" fill="#314254"/>
<path d="M14.8014 9.74829H3.78208C3.38397 9.74829 3.05695 10.0803 3.05695 10.4846C3.05695 10.8888 3.38397 11.2208 3.78208 11.2208H14.8014C15.1995 11.2208 15.5265 10.8888 15.5265 10.4846C15.5265 10.0803 15.2066 9.74829 14.8014 9.74829Z" fill="#314254"/>
<path d="M14.8013 12.7006H3.78208C3.38397 12.7006 3.05695 13.0326 3.05695 13.4369C3.05695 13.8411 3.38397 14.1731 3.78208 14.1731H14.8013C15.1994 14.1731 15.5265 13.8411 15.5265 13.4369C15.5336 13.0326 15.2066 12.7006 14.8013 12.7006Z" fill="#314254"/>
<path d="M11.3178 15.653H3.78208C3.38397 15.653 3.05695 15.985 3.05695 16.3892C3.05695 16.7935 3.38397 17.1255 3.78208 17.1255H11.3178C11.7159 17.1255 12.043 16.7935 12.043 16.3892C12.0501 15.985 11.7231 15.653 11.3178 15.653Z" fill="#314254"/>
<path d="M10.0666 18.6558H3.78922C3.39111 18.6558 3.06409 18.9878 3.06409 19.3921C3.06409 19.7963 3.39111 20.1284 3.78922 20.1284H10.0666C10.4648 20.1284 10.7918 19.7963 10.7918 19.3921C10.7918 18.9878 10.4648 18.6558 10.0666 18.6558Z" fill="#314254"/>
<path d="M17.7517 24.7048C17.7517 24.7048 17.7446 24.7048 17.7517 24.7048C17.5526 24.7048 17.3749 24.6182 17.247 24.4739L14.844 21.6515C14.7303 21.5143 14.7019 21.3338 14.773 21.1678C14.844 21.0018 15.0004 20.9007 15.1782 20.9007H16.4578L16.4507 18.3887C16.4507 18.1794 16.5289 17.9773 16.6782 17.8329C16.8275 17.6813 17.0195 17.6019 17.2256 17.6019H18.3347C18.7612 17.6019 19.1096 17.9556 19.1096 18.3887V20.9152H20.3466C20.5243 20.9152 20.6807 21.0162 20.7518 21.1823C20.8229 21.3483 20.7944 21.536 20.6807 21.6659L18.2494 24.4739C18.1214 24.6254 17.9365 24.7048 17.7517 24.7048ZM16.0313 21.7164L17.6948 23.4633C17.7162 23.4849 17.7375 23.4849 17.7446 23.4849C17.7588 23.4849 17.7801 23.4849 17.7944 23.4633L19.4579 21.6731H18.4271C18.2991 21.6731 18.1996 21.5648 18.1996 21.4421L18.1925 18.8579C18.1925 18.7641 18.1214 18.6919 18.029 18.6919H17.4958C17.4531 18.6919 17.4105 18.7063 17.382 18.7352C17.3536 18.7641 17.3394 18.8074 17.3394 18.8507V21.471C17.3394 21.536 17.318 21.5937 17.2683 21.637C17.2256 21.6803 17.1688 21.7092 17.1048 21.7092L16.0313 21.7164Z" fill="#314254"/>
<path d="M12.2278 3.64869C12.7681 3.64869 13.2089 3.20115 13.2089 2.65255C13.2089 2.10395 12.7681 1.6564 12.2278 1.6564C11.6875 1.6564 11.2468 2.10395 11.2468 2.65255C11.2468 3.20115 11.6875 3.64869 12.2278 3.64869Z" fill="#314254"/>
<path d="M6.32005 3.64869C6.86035 3.64869 7.30112 3.20115 7.30112 2.65255C7.30112 2.10395 6.86035 1.6564 6.32005 1.6564C5.77976 1.6564 5.33899 2.10395 5.33899 2.65255C5.33899 3.20115 5.77976 3.64869 6.32005 3.64869Z" fill="#314254"/>
<path d="M9.27041 3.48265C10.0666 3.48265 10.7207 2.82578 10.7207 2.0101C10.7207 1.19441 10.0738 0.537537 9.27041 0.537537C8.47418 0.537537 7.82013 1.19441 7.82013 2.0101C7.82724 2.82578 8.47418 3.48265 9.27041 3.48265Z" fill="#9DD4AD"/>
<path d="M22.0385 16.6996C21.093 15.7179 19.8773 15.1043 18.555 14.9239V4.91192C18.555 3.27333 17.2398 1.93793 15.626 1.93793H14.9862H14.7516C14.3748 1.93793 14.0407 2.21944 14.0051 2.60202C14.0051 2.62368 14.0051 2.64533 14.0051 2.66699C14.0051 2.7897 14.0336 2.9052 14.0833 3.00625C14.2042 3.26612 14.4743 3.4177 14.7587 3.4177H14.9364H15.6331C16.4436 3.4177 17.1047 4.08902 17.1047 4.91192V14.9022C14.0691 15.227 11.6946 17.8401 11.6946 21.0018C11.6946 21.8824 11.8724 22.727 12.2207 23.5066H2.92188C2.11143 23.5066 1.45028 22.8353 1.45028 22.0124V4.91192C1.45028 4.08902 2.11143 3.4177 2.92188 3.4177H3.64702H3.82475C4.10912 3.4177 4.37216 3.26612 4.50012 3.00625C4.54989 2.9052 4.57832 2.7897 4.57832 2.66699C4.57832 2.64533 4.57832 2.62368 4.57832 2.60202C4.54989 2.21944 4.21575 1.93793 3.83186 1.93793H3.59725H2.92899C1.3152 1.93793 0 3.27333 0 4.91192V22.0124C0 23.6509 1.3152 24.9864 2.92899 24.9864H13.1378C14.2895 26.3579 15.9388 27.1374 17.7303 27.1374C21.0574 27.1374 23.766 24.3872 23.766 21.0018C23.766 19.3849 23.1547 17.8546 22.0385 16.6996ZM17.7303 25.6649C16.2801 25.6649 14.9435 24.9864 14.0691 23.8098C13.4648 22.9941 13.1449 22.0268 13.1449 21.009C13.1449 18.4392 15.1995 16.3531 17.7303 16.3531C17.7517 16.3531 17.7801 16.3531 17.8014 16.3531H17.8156C19.0242 16.3748 20.1546 16.8656 21.0006 17.7463C21.8466 18.6197 22.3158 19.7819 22.3158 21.0162C22.3158 23.5715 20.2541 25.6649 17.7303 25.6649Z" fill="#9DD4AD"/>
</svg>
