<svg width="32" height="32" viewBox="0 0 32 32" fill="none" xmlns="http://www.w3.org/2000/svg">
<path fill-rule="evenodd" clip-rule="evenodd" d="M24.0017 14.3333V21L25.7217 22.72C26.5617 23.56 25.9617 25 24.775 25H7.21499C6.02832 25 5.44166 23.56 6.28166 22.72L8.00166 21V14.3333C8.00166 10.2267 10.175 6.81333 14.0017 5.90667V5C14.0017 3.89333 14.895 3 16.0017 3C17.1083 3 18.0017 3.89333 18.0017 5V5.90667C21.815 6.81333 24.0017 10.24 24.0017 14.3333ZM18.6683 26.3333C18.6683 27.8 17.4683 29 16.0016 29C14.5216 29 13.335 27.8 13.335 26.3333H18.6683Z" fill="#17375F"/>
</svg>
