<svg width="35" height="49" viewBox="0 0 35 49" fill="none" xmlns="http://www.w3.org/2000/svg">
<path d="M5.96482 25.1155C6.52788 25.1155 6.98433 24.4765 6.98433 23.6882C6.98433 22.8999 6.52788 22.2609 5.96482 22.2609C5.40176 22.2609 4.94531 22.8999 4.94531 23.6882C4.94531 24.4765 5.40176 25.1155 5.96482 25.1155Z" fill="#314254"/>
<path d="M11.6594 25.1163C12.2228 25.1163 12.6795 24.4769 12.6795 23.6881C12.6795 22.8994 12.2228 22.26 11.6594 22.26C11.096 22.26 10.6393 22.8994 10.6393 23.6881C10.6393 24.4769 11.096 25.1163 11.6594 25.1163Z" fill="#314254"/>
<path d="M17.3541 25.1163C17.9175 25.1163 18.3742 24.4769 18.3742 23.6881C18.3742 22.8994 17.9175 22.26 17.3541 22.26C16.7907 22.26 16.334 22.8994 16.334 23.6881C16.334 24.4769 16.7907 25.1163 17.3541 25.1163Z" fill="#314254"/>
<path d="M23.0488 25.1163C23.6122 25.1163 24.0689 24.4769 24.0689 23.6881C24.0689 22.8994 23.6122 22.26 23.0488 22.26C22.4854 22.26 22.0287 22.8994 22.0287 23.6881C22.0287 24.4769 22.4854 25.1163 23.0488 25.1163Z" fill="#314254"/>
<path d="M2.19477 23.7911V23.5868C2.19477 20.2346 4.14224 17.5073 6.53672 17.5073H27.0265C27.2311 17.5073 27.45 17.5333 27.6955 17.5869L27.7233 17.593L27.7474 17.5723C28.4912 16.9508 29.3437 16.6219 30.2117 16.6219C30.5271 16.6219 30.8398 16.6642 31.1416 16.7474L31.4377 16.8279L31.2065 16.5579C30.0343 15.1886 28.5493 14.4347 27.0266 14.4347H6.53679C2.93233 14.4346 0 18.5399 0 23.586V23.7902C0 28.8364 2.93233 32.9415 6.53666 32.9415H24.4812V29.8706H6.53666C4.14224 29.8706 2.19477 27.1433 2.19477 23.7911Z" fill="#314254"/>
<path d="M34.4608 26.5556H33.9236V22.749C33.9236 20.0555 32.2599 17.863 30.2122 17.863C28.164 17.863 26.4991 20.0546 26.4991 22.749V26.5556C26.4991 26.5556 26.2586 26.5556 25.9618 26.5556C25.6644 26.5556 25.4233 27.0118 25.4233 27.5779V33.5405C25.4233 34.1057 25.7522 34.5653 26.1535 34.5653H34.2697C34.6735 34.5653 34.9999 34.1057 34.9999 33.5405V27.5779C34.9993 27.0118 34.7595 26.5556 34.4608 26.5556ZM30.2122 31.5742C29.7078 31.5742 29.2985 30.9994 29.2985 30.2932C29.2985 29.5868 29.7078 29.0147 30.2122 29.0147C30.7168 29.0147 31.126 29.5859 31.126 30.2932C31.126 30.9994 30.7174 31.5742 30.2122 31.5742ZM32.7087 26.5556H27.717V22.749C27.717 20.9963 28.8361 19.5681 30.2122 19.5681C31.5873 19.5681 32.7087 20.9955 32.7087 22.749V26.5556Z" fill="#314254"/>
</svg>
