<svg width="35" height="31" viewBox="0 0 35 31" fill="none" xmlns="http://www.w3.org/2000/svg">
<path d="M25.5228 9.14531C20.5832 11.8273 17.023 15.2144 15.5774 16.7197L11.8658 14.1444C11.7675 14.0818 9.73009 15.6839 9.7842 15.7338L16.5437 21.8205C16.5934 21.8704 16.6618 21.8929 16.7358 21.8929C16.7491 21.8929 16.7701 21.8929 16.7877 21.889C16.8761 21.8714 16.9512 21.8186 16.9843 21.7403C18.0732 19.2745 21.6688 14.1121 26.2605 10.3679C26.3422 10.2995 26.3709 10.1919 26.3257 10.099C26.3246 10.098 25.5913 9.10814 25.5228 9.14531Z" fill="#314254"/>
<path d="M29.9555 3.75787C19.7208 3.75787 17.9892 0.316905 17.9738 0.284628C17.8987 0.116394 17.7131 0.00391241 17.5033 0C17.5033 0 17.4989 0 17.4945 0C17.2913 0 17.1036 0.112482 17.0218 0.276803C17.0097 0.312993 15.2406 3.75787 5.04449 3.75787C4.75958 3.75787 4.5343 3.9623 4.5343 4.20878V19.6276C4.5343 25.9393 16.7745 30.7613 17.2924 30.9638C17.3609 30.9902 17.426 31 17.5 31C17.5674 31 17.6403 30.9902 17.7054 30.9638C18.2277 30.7613 30.4657 25.9393 30.4657 19.6276V4.20878C30.4635 3.9623 30.2371 3.75787 29.9555 3.75787ZM27.6497 18.7307C27.6497 23.6691 18.0665 27.4475 17.659 27.604C17.6093 27.6265 17.5508 27.6343 17.4989 27.6343C17.4426 27.6343 17.3907 27.6265 17.3377 27.604C16.9346 27.4475 7.34808 23.6691 7.34808 18.7307V6.66186C7.34808 6.46722 7.52588 6.30681 7.74784 6.30681C15.7309 6.30681 17.1146 3.61116 17.1279 3.58475C17.1908 3.45466 17.3366 3.36663 17.4967 3.36663C17.4989 3.36663 17.5033 3.36663 17.5033 3.36663C17.6668 3.36859 17.8114 3.45662 17.8699 3.59062C17.8832 3.61507 19.2393 6.30681 27.25 6.30681C27.4719 6.30681 27.6486 6.46722 27.6486 6.66186L27.6497 18.7307Z" fill="#314254"/>
</svg>
