<svg width="24" height="24" viewBox="0 0 24 24" fill="none" xmlns="http://www.w3.org/2000/svg">
<path fill-rule="evenodd" clip-rule="evenodd" d="M17.5022 12C17.5022 12.34 17.4722 12.66 17.4322 12.98L19.5422 14.63C19.7322 14.78 19.7822 15.05 19.6622 15.27L17.6622 18.73C17.5422 18.95 17.2822 19.04 17.0522 18.95L14.5622 17.95C14.0422 18.34 13.4822 18.68 12.8722 18.93L12.4922 21.58C12.4622 21.82 12.2522 22 12.0022 22H8.00216C7.75216 22 7.54216 21.82 7.51216 21.58L7.13216 18.93C6.52216 18.68 5.96216 18.35 5.44216 17.95L2.95216 18.95C2.73216 19.03 2.46216 18.95 2.34216 18.73L0.342159 15.27C0.222159 15.05 0.272159 14.78 0.462159 14.63L2.57216 12.98C2.53216 12.66 2.50216 12.33 2.50216 12C2.50216 11.67 2.53216 11.34 2.57216 11.02L0.462159 9.37C0.272159 9.22 0.212159 8.95 0.342159 8.73L2.34216 5.27C2.46216 5.05 2.72216 4.96 2.95216 5.05L5.44216 6.05C5.96216 5.66 6.52216 5.32 7.13216 5.07L7.51216 2.42C7.54216 2.18 7.75216 2 8.00216 2H12.0022C12.2522 2 12.4622 2.18 12.4922 2.42L12.8722 5.07C13.4822 5.32 14.0422 5.65 14.5622 6.05L17.0522 5.05C17.2722 4.97 17.5422 5.05 17.6622 5.27L19.6622 8.73C19.7822 8.95 19.7322 9.22 19.5422 9.37L17.4322 11.02C17.4722 11.34 17.5022 11.66 17.5022 12ZM6.50216 12C6.50216 13.93 8.07216 15.5 10.0022 15.5C11.9322 15.5 13.5022 13.93 13.5022 12C13.5022 10.07 11.9322 8.5 10.0022 8.5C8.07216 8.5 6.50216 10.07 6.50216 12Z" fill="#314254"/>
</svg>
