<svg width="21" height="12" viewBox="0 0 21 12" fill="none" xmlns="http://www.w3.org/2000/svg">
<path d="M15.4998 1.05374L17.0136 2.49374L11.8834 7.37373L8.42465 4.08374C8.22824 3.89648 7.96158 3.79125 7.6835 3.79125C7.40541 3.79125 7.13875 3.89648 6.94234 4.08374L0.634648 10.0937C0.224648 10.4837 0.224648 11.1137 0.634648 11.5037C1.04465 11.8937 1.70696 11.8937 2.11696 11.5037L7.67824 6.20373L11.137 9.49373C11.547 9.88373 12.2093 9.88373 12.6193 9.49373L18.4959 3.91374L20.0098 5.35373C20.3357 5.66373 20.9034 5.44374 20.9034 5.00374V0.703735C20.9139 0.423735 20.6826 0.203735 20.3882 0.203735H15.8782C15.4052 0.203735 15.1739 0.743735 15.4998 1.05374Z" fill="#314254"/>
</svg>
