<svg width="28" height="24" viewBox="0 0 28 24" fill="none" xmlns="http://www.w3.org/2000/svg">
<path d="M17.5904 11.261L11.4325 7.8414C11.0776 7.64863 10.6566 7.64863 10.3099 7.85816C9.96323 8.0677 9.75687 8.43648 9.75687 8.84716V15.6277C9.75687 16.0384 9.96323 16.4071 10.3099 16.6167C10.4915 16.7256 10.6896 16.7843 10.8877 16.7843C11.0693 16.7843 11.2509 16.7424 11.4243 16.6418L17.5822 13.2809C17.9454 13.0797 18.1765 12.6942 18.1765 12.2751C18.1765 11.8561 17.9536 11.4621 17.5904 11.261ZM11.3913 14.7812V9.71044L15.989 12.2668L11.3913 14.7812Z" fill="white"/>
<path d="M17.6813 3.97756C18.3581 3.97756 18.9112 3.41601 18.9112 2.72874C18.9112 2.04147 18.3581 1.47992 17.6813 1.47992C17.0044 1.47992 16.4514 2.04147 16.4514 2.72874C16.4514 3.42439 17.0044 3.97756 17.6813 3.97756Z" fill="white"/>
<path d="M10.2522 3.97756C10.929 3.97756 11.4821 3.41601 11.4821 2.72874C11.4821 2.04147 10.929 1.47992 10.2522 1.47992C9.5753 1.47992 9.02225 2.04147 9.02225 2.72874C9.02225 3.42439 9.56705 3.97756 10.2522 3.97756Z" fill="white"/>
<path d="M13.9667 3.76804C14.9737 3.76804 15.7909 2.93828 15.7909 1.91576C15.7909 0.893231 14.9737 0.0634766 13.9667 0.0634766C12.9596 0.0634766 12.1424 0.893231 12.1424 1.91576C12.1424 2.93828 12.9596 3.76804 13.9667 3.76804Z" fill="white"/>
<path d="M27.6939 6.86914V6.85238C27.6692 6.62608 27.438 4.5978 26.464 3.56689C25.3414 2.3516 24.0702 2.20911 23.4594 2.13368C23.4098 2.1253 23.3603 2.1253 23.319 2.11692L23.2695 2.10854C22.5926 2.05825 21.8415 2.01634 21.0821 1.98282C21.0078 1.98282 20.9335 1.97443 20.8592 1.97443C20.4134 1.95767 20.0172 2.29293 19.9842 2.73714C19.9842 2.7539 19.9842 2.77905 19.9842 2.79581C19.9842 2.81257 19.9842 2.83771 19.9842 2.85448C20.009 3.28193 20.3722 3.6088 20.7849 3.62556C20.8592 3.62556 20.9252 3.63394 20.9913 3.63394C21.7342 3.66747 22.4606 3.70938 23.1209 3.75966C23.1622 3.76805 23.2117 3.76804 23.2613 3.77643C23.773 3.83509 24.549 3.92729 25.2588 4.69837L25.2671 4.70676C25.7128 5.17611 25.9852 6.36626 26.0513 7.01163C26.0595 7.15411 26.2494 9.34164 26.2494 11.4705V13.591C26.2494 15.6863 26.0678 17.8487 26.0513 18.0415C25.9852 18.5863 25.6963 19.8435 25.2506 20.338C24.5572 21.1091 23.8473 21.1929 23.319 21.2432C23.253 21.2515 23.1952 21.2599 23.1457 21.2599C19.5797 21.5197 14.2308 21.5616 13.9832 21.5616C13.7025 21.5616 7.13191 21.4527 5.06828 21.2599C4.96097 21.2432 4.84541 21.2264 4.72984 21.218C4.11901 21.151 3.2853 21.0504 2.64145 20.3296L2.62494 20.3128C2.17919 19.8435 1.90679 18.6701 1.84076 18.0415C1.82425 17.8906 1.64265 15.7031 1.64265 13.5826V11.4621C1.64265 9.36679 1.82425 7.21278 1.84076 7.01163C1.9233 6.36626 2.21221 5.19287 2.64145 4.71514C3.35959 3.91891 4.11075 3.82672 4.60602 3.76805C4.65555 3.75966 4.69682 3.75966 4.7381 3.75128C5.38195 3.70099 6.09184 3.66747 6.80998 3.63394C6.80998 3.63394 6.80998 3.63394 6.80173 3.63394C6.88427 3.63394 6.95856 3.62556 7.04111 3.62556C7.45384 3.6088 7.80052 3.29031 7.83354 2.87124C7.83354 2.85448 7.83354 2.82933 7.83354 2.81257C7.83354 2.6198 7.76751 2.44379 7.6602 2.29293C7.49511 2.06663 7.22271 1.95767 6.95031 1.96606C6.90078 1.96606 6.843 1.97443 6.79347 1.97443H6.78522C6.0258 2.00796 5.27464 2.04987 4.59777 2.10016L4.54824 2.10854C4.50697 2.11692 4.4657 2.11692 4.41617 2.1253C3.81359 2.19235 2.55065 2.34322 1.42803 3.60042C0.503525 4.62294 0.239381 6.60094 0.206363 6.82724V6.85238C0.198109 6.94458 0 9.20754 0 11.4705V13.591C0 15.8539 0.198109 18.1085 0.206363 18.2091V18.2259C0.231127 18.4522 0.462252 20.4385 1.42803 21.4695C2.48461 22.6428 3.81359 22.7937 4.53173 22.8775C4.6473 22.8943 4.74635 22.9027 4.81239 22.911L4.87842 22.9194C7.00809 23.129 13.6777 23.2295 13.9584 23.2295H13.9667H13.9749C14.0327 23.2295 19.5962 23.196 23.2778 22.9194L23.3273 22.911C23.3768 22.9027 23.4263 22.9027 23.4841 22.8943C24.0867 22.8272 25.3331 22.6931 26.4475 21.4527C27.372 20.4302 27.6362 18.4522 27.6692 18.2259V18.2007C27.6774 18.1085 27.8755 15.8456 27.8755 13.5826V11.4621C27.9003 9.2243 27.7022 6.96972 27.6939 6.86914Z" fill="white"/>
</svg>
