<svg width="15" height="15" viewBox="0 0 15 15" fill="none" xmlns="http://www.w3.org/2000/svg">
<path d="M6.38722 7.28948C7.21903 7.28948 8.03129 6.78477 8.67437 5.86833C9.24188 5.05957 9.58068 4.05964 9.58068 3.1935C9.58072 1.43261 8.14814 0 6.38722 0C4.62633 0 3.19373 1.43261 3.19373 3.1935C3.19373 4.05964 3.53252 5.05957 4.10007 5.86833C4.74315 6.78477 5.55545 7.28948 6.38722 7.28948ZM6.38722 0.520747C7.86097 0.520747 9.05997 1.71975 9.05997 3.1935C9.05997 3.94528 8.74891 4.85558 8.24813 5.56921C7.71322 6.33151 7.03493 6.76873 6.38722 6.76873C5.73952 6.76873 5.06126 6.33151 4.52632 5.56921C4.02557 4.85558 3.71447 3.94525 3.71447 3.1935C3.71447 1.71975 4.91347 0.520747 6.38722 0.520747Z" fill="white"/>
<path d="M7.73021 13.599C7.72747 13.5926 7.72813 13.5942 7.72931 13.5972C7.71615 13.5667 7.69754 13.5379 7.67362 13.5147C7.57586 13.4141 7.40339 13.414 7.30563 13.5147C7.16006 13.656 7.23863 13.9086 7.43245 13.9525C7.63609 13.9986 7.80582 13.7913 7.73066 13.6004C7.73202 13.6037 7.73295 13.6059 7.73021 13.599Z" fill="white"/>
<path d="M13.1847 9.22322C12.5061 8.54466 11.6088 8.21593 10.7176 8.23516C10.1944 7.58745 9.52587 7.05872 8.7761 6.7018C8.67667 6.65449 8.55829 6.67479 8.48032 6.75256C7.85299 7.37825 7.12919 7.709 6.38716 7.709C5.64503 7.709 4.92136 7.37829 4.29438 6.75259C4.21641 6.67479 4.09796 6.65445 3.99853 6.70184C3.06247 7.14753 2.27024 7.8446 1.70752 8.71772C1.12943 9.61465 0.823853 10.6553 0.823853 11.7271V11.7316C0.823853 11.8051 0.854889 11.8751 0.90929 11.9245C2.41178 13.2871 4.35719 14.0375 6.38716 14.0375C6.49436 14.0375 6.60271 14.0354 6.70922 14.0312C6.85291 14.0257 6.96488 13.9047 6.95929 13.761C6.9537 13.6173 6.83243 13.5052 6.68902 13.5109C6.58924 13.5148 6.4877 13.5167 6.38716 13.5167C4.52563 13.5167 2.73999 12.8426 1.34581 11.6162C1.36605 10.6838 1.64142 9.78153 2.14523 8.99982C2.62314 8.25831 3.28351 7.65685 4.06255 7.25161C4.75847 7.89233 5.55865 8.22974 6.38719 8.22974C7.2156 8.22974 8.01588 7.8923 8.71208 7.25161C9.22741 7.52007 9.69598 7.87928 10.0915 8.30681C9.47046 8.4371 8.87907 8.74198 8.39786 9.22322C7.07812 10.543 7.07812 12.6904 8.39786 14.0101C9.05775 14.67 9.92455 14.9999 10.7913 14.9999C11.6581 14.9999 12.5249 14.67 13.1848 14.0101C13.8241 13.3708 14.1762 12.5208 14.1762 11.6167C14.1761 10.7126 13.824 9.86253 13.1847 9.22322ZM13.3102 10.2516L11.5594 12.0023L11.1666 11.6096L12.9921 9.7841C13.1142 9.93029 13.2206 10.0868 13.3102 10.2516ZM12.6236 9.41607L10.7984 11.2413L10.4056 10.8485L12.1554 9.09873C12.3193 9.18743 12.4762 9.29318 12.6236 9.41607ZM11.0749 12.2544L9.70928 12.6986L10.1536 11.333L11.0749 12.2544ZM12.8165 13.6419C11.6997 14.7586 9.88272 14.7586 8.766 13.6419C7.64927 12.5252 7.64927 10.7082 8.766 9.59146C9.32441 9.03305 10.0577 8.75393 10.7912 8.75393C11.0764 8.75393 11.3615 8.79673 11.6365 8.8812L9.85321 10.6645C9.82419 10.6935 9.80242 10.729 9.78971 10.768L9.05581 13.0239C9.0255 13.1171 9.05005 13.2193 9.11931 13.2886C9.16892 13.3382 9.23547 13.3649 9.30344 13.3649C9.33038 13.3649 9.35753 13.3607 9.38395 13.3521L11.6398 12.6182C11.6789 12.6055 11.7144 12.5837 11.7434 12.5547L13.5283 10.7697C13.6117 11.0406 13.6553 11.3252 13.6553 11.6167C13.6554 12.3817 13.3575 13.1009 12.8165 13.6419Z" fill="white"/>
</svg>
