<svg width="15" height="15" viewBox="0 0 15 15" fill="none" xmlns="http://www.w3.org/2000/svg">
<path d="M6 0.75C6 0.948912 5.92098 1.13968 5.78033 1.28033C5.63968 1.42098 5.44891 1.5 5.25 1.5H1.5V5.25C1.5 5.44891 1.42098 5.63968 1.28033 5.78033C1.13968 5.92098 0.948912 6 0.75 6C0.551088 6 0.360322 5.92098 0.21967 5.78033C0.0790176 5.63968 0 5.44891 0 5.25V0.75C0 0.551088 0.0790176 0.360322 0.21967 0.21967C0.360322 0.0790176 0.551088 0 0.75 0H5.25C5.44891 0 5.63968 0.0790176 5.78033 0.21967C5.92098 0.360322 6 0.551088 6 0.75ZM14.25 9C14.0511 9 13.8603 9.07902 13.7197 9.21967C13.579 9.36032 13.5 9.55109 13.5 9.75V13.5H9.75C9.55109 13.5 9.36032 13.579 9.21967 13.7197C9.07902 13.8603 9 14.0511 9 14.25C9 14.4489 9.07902 14.6397 9.21967 14.7803C9.36032 14.921 9.55109 15 9.75 15H14.25C14.4489 15 14.6397 14.921 14.7803 14.7803C14.921 14.6397 15 14.4489 15 14.25V9.75C15 9.55109 14.921 9.36032 14.7803 9.21967C14.6397 9.07902 14.4489 9 14.25 9ZM14.25 0H9.75C9.55109 0 9.36032 0.0790176 9.21967 0.21967C9.07902 0.360322 9 0.551088 9 0.75C9 0.948912 9.07902 1.13968 9.21967 1.28033C9.36032 1.42098 9.55109 1.5 9.75 1.5H13.5V5.25C13.5 5.44891 13.579 5.63968 13.7197 5.78033C13.8603 5.92098 14.0511 6 14.25 6C14.4489 6 14.6397 5.92098 14.7803 5.78033C14.921 5.63968 15 5.44891 15 5.25V0.75C15 0.551088 14.921 0.360322 14.7803 0.21967C14.6397 0.0790176 14.4489 0 14.25 0ZM5.25 13.5H1.5V9.75C1.5 9.55109 1.42098 9.36032 1.28033 9.21967C1.13968 9.07902 0.948912 9 0.75 9C0.551088 9 0.360322 9.07902 0.21967 9.21967C0.0790176 9.36032 0 9.55109 0 9.75V14.25C0 14.4489 0.0790176 14.6397 0.21967 14.7803C0.360322 14.921 0.551088 15 0.75 15H5.25C5.44891 15 5.63968 14.921 5.78033 14.7803C5.92098 14.6397 6 14.4489 6 14.25C6 14.0511 5.92098 13.8603 5.78033 13.7197C5.63968 13.579 5.44891 13.5 5.25 13.5Z" fill="white"/>
<g clip-path="url(#clip0)">
<path d="M10.2363 8.60483L10.226 8.59835C10.2025 8.58363 10.1789 8.56922 10.155 8.55513L10.1464 8.54998C10.0935 8.51901 10.0397 8.48949 9.98494 8.46144L9.96989 8.45382C9.9478 8.44265 9.92552 8.43166 9.90305 8.42087L9.88515 8.4123C9.85887 8.39961 9.83247 8.38755 9.80593 8.37612L9.80346 8.37498C9.77591 8.36292 9.74823 8.35124 9.72043 8.33994L9.69891 8.33137C9.67847 8.32325 9.65797 8.31531 9.6374 8.30757L9.60998 8.29748C9.58942 8.28999 9.56872 8.28269 9.5479 8.27558L9.52505 8.26777C9.49801 8.25876 9.47084 8.25012 9.44355 8.24187L9.4146 8.2333C9.39607 8.22784 9.37747 8.22251 9.35881 8.2173L9.32262 8.20759L9.2714 8.19464L9.23503 8.18588C9.20964 8.18004 9.18424 8.17446 9.15885 8.16913L9.11696 8.16094L9.09373 8.15637V7.53004C9.46433 7.31608 9.77206 7.00832 9.986 6.6377C10.1999 6.26709 10.3125 5.84668 10.3125 5.41875V4.6875C10.3125 4.04103 10.0557 3.42105 9.59855 2.96393C9.14143 2.50681 8.52144 2.25 7.87498 2.25C7.22851 2.25 6.60852 2.50681 6.1514 2.96393C5.69428 3.42105 5.43748 4.04103 5.43748 4.6875V5.41875C5.43741 5.84668 5.55001 6.26709 5.76395 6.6377C5.97789 7.00832 6.28563 7.31608 6.65623 7.53004V8.15675L6.63299 8.16132L6.5911 8.16951C6.56571 8.17471 6.54032 8.1803 6.51493 8.18626L6.47856 8.19502L6.42733 8.20797L6.39115 8.21769C6.37249 8.22276 6.35389 8.2281 6.33535 8.23368L6.30641 8.24225C6.27911 8.2505 6.25194 8.25914 6.2249 8.26815L6.20205 8.27596C6.18123 8.28307 6.16054 8.29037 6.13997 8.29786L6.11255 8.30795C6.09186 8.31569 6.07135 8.32363 6.05104 8.33175L6.02952 8.34032C6.00159 8.35162 5.97392 8.3633 5.94649 8.37536L5.94402 8.3765C5.91736 8.38818 5.89095 8.40024 5.8648 8.41269L5.8469 8.42126C5.82443 8.43192 5.80215 8.4429 5.78006 8.4542L5.76502 8.46182C5.7103 8.48987 5.65647 8.51939 5.60353 8.55037L5.59496 8.55551C5.57109 8.5696 5.54742 8.58401 5.52393 8.59874L5.51365 8.60521C5.04238 8.9013 4.65399 9.31219 4.38487 9.79936C4.11576 10.2865 3.97472 10.8341 3.97498 11.3906C3.97498 11.5522 4.03918 11.7072 4.15346 11.8215C4.26774 11.9358 4.42273 12 4.58435 12H11.1656C11.3272 12 11.4822 11.9358 11.5965 11.8215C11.7108 11.7072 11.775 11.5522 11.775 11.3906C11.7753 10.834 11.6343 10.2864 11.3652 9.79915C11.0961 9.3119 10.7076 8.90096 10.2363 8.60483ZM6.73963 8.63739L7.87498 9.31875L9.0107 8.63739C9.1862 8.67086 9.35807 8.72118 9.52391 8.78764L7.87498 9.73198L6.22605 8.78764C6.39189 8.72118 6.56375 8.67086 6.73925 8.63739H6.73963ZM7.9243 2.73807H7.94087L7.97324 2.7394L7.99228 2.74055L8.02142 2.74245L8.04217 2.74417L8.06998 2.74664L8.09111 2.74893L8.11816 2.75197L8.13948 2.75483L8.16576 2.75845L8.18728 2.76187L8.21318 2.76625L8.2347 2.77025L8.26041 2.77521L8.28154 2.77958L8.30706 2.78511L8.32782 2.79006L8.35334 2.79634L8.3739 2.80167L8.39904 2.80853L8.41941 2.81443L8.44436 2.82186L8.46455 2.82814L8.4893 2.83614L8.50835 2.84281L8.5331 2.85157L8.55214 2.85861L8.5769 2.86794L8.59594 2.87537L8.62051 2.88546L8.63955 2.89327L8.66412 2.90394L8.68316 2.91212L8.70773 2.92355L8.72525 2.93193L8.75 2.94431L8.76676 2.95269L8.7919 2.96583L8.8077 2.97439L8.83303 2.98868L8.84807 2.99725L8.87397 3.01267L8.88787 3.02086L8.91472 3.03762L8.9271 3.04542L8.95547 3.06447L8.96576 3.07132L8.99661 3.09284L9.00365 3.09779C9.05443 3.13385 9.10325 3.17193 9.15009 3.21205L9.15257 3.21434C9.16336 3.22373 9.17402 3.23319 9.18456 3.24271L9.19085 3.24842L9.21846 3.27413L9.22646 3.28194L9.2514 3.30631L9.26054 3.31564L9.28416 3.34059L9.29387 3.35087L9.3152 3.37354L9.3251 3.38458L9.34586 3.40781L9.35614 3.41962L9.37518 3.44285L9.38547 3.45542L9.40451 3.47884L9.4146 3.49179L9.43364 3.51541L9.44355 3.52874L9.46107 3.55254L9.47078 3.56644L9.48754 3.59063L9.49706 3.60472L9.51324 3.62909L9.52257 3.64356L9.53819 3.66851L9.54714 3.68317L9.56199 3.70831L9.57056 3.72316L9.58485 3.74887L9.59303 3.76392L9.60674 3.79L9.61455 3.80524C9.61893 3.814 9.62331 3.82295 9.62769 3.83171L9.63512 3.84713C9.6395 3.85608 9.6435 3.86503 9.64769 3.87417L9.65473 3.8896C9.65892 3.89874 9.66292 3.90864 9.66692 3.9174L9.6734 3.93245C9.67739 3.94197 9.6812 3.95149 9.68501 3.96101L9.6911 3.97586C9.69491 3.98577 9.69872 3.99491 9.70234 4.00538L9.70767 4.01966C9.71148 4.02995 9.7151 4.04042 9.71872 4.0507L9.72329 4.06403C9.7271 4.07508 9.73052 4.08612 9.73414 4.09736L9.73795 4.10897C9.74176 4.12154 9.74557 4.13392 9.74919 4.14706L9.75147 4.15468C9.76417 4.20051 9.77553 4.24697 9.78556 4.29407C9.78556 4.29826 9.78708 4.30245 9.78803 4.30664C9.79032 4.31807 9.7926 4.32949 9.7947 4.34092C9.79565 4.34663 9.7966 4.35234 9.79755 4.35806C9.79927 4.36815 9.80098 4.37805 9.80251 4.38814C9.80346 4.39462 9.80441 4.4009 9.80536 4.40719C9.8067 4.41671 9.80803 4.42623 9.80936 4.43556C9.81069 4.44489 9.81108 4.44946 9.81184 4.45632C9.8126 4.46317 9.81393 4.47441 9.81488 4.48355C9.81584 4.49269 9.81622 4.49821 9.81698 4.50545C9.81774 4.51269 9.81869 4.52297 9.81926 4.53173C9.81984 4.54049 9.82041 4.54696 9.82079 4.55458C9.82117 4.5622 9.82079 4.56734 9.82193 4.57362C9.72267 4.59058 9.62213 4.59886 9.52143 4.59838C8.44912 4.59838 7.17496 3.79648 7.16258 3.78867L6.89445 3.61729L6.62957 3.79438L5.98001 4.22742L5.98172 4.22C5.98744 4.19657 5.99353 4.17334 6.00077 4.1503L6.00324 4.1423C6.00972 4.12021 6.01657 4.09825 6.02381 4.07641L6.02686 4.06727C6.03447 4.0448 6.04247 4.02271 6.05066 4.00062L6.0558 3.9871C6.06418 3.96539 6.07294 3.94381 6.08208 3.92235L6.08703 3.91112C6.0963 3.88992 6.10588 3.86897 6.11579 3.84828L6.11788 3.8439C6.12816 3.82257 6.13902 3.80143 6.15006 3.78048L6.15673 3.76811C6.16752 3.74792 6.17869 3.72799 6.19024 3.70831L6.19767 3.69593C6.20967 3.67575 6.22186 3.65575 6.23442 3.63614L6.23804 3.63062C6.25074 3.61183 6.26343 3.59329 6.27613 3.57501L6.28317 3.56492C6.29587 3.54625 6.30939 3.52785 6.32374 3.50969L6.33288 3.4977C6.34684 3.47954 6.36112 3.46164 6.37572 3.44399L6.38296 3.43542C6.39705 3.41854 6.41146 3.40197 6.42619 3.38572L6.4319 3.37925C6.44739 3.36211 6.46319 3.34529 6.47932 3.32878L6.48979 3.31812C6.50566 3.302 6.52185 3.28613 6.53835 3.27051L6.54844 3.26118C6.56558 3.24519 6.58291 3.22957 6.60062 3.21415L6.6031 3.21205C6.62062 3.19694 6.63839 3.18215 6.65642 3.16768L6.66689 3.1593C6.68466 3.14521 6.70275 3.13137 6.72116 3.11779L6.73297 3.10903C6.75201 3.09551 6.77106 3.08199 6.7901 3.06904L6.79753 3.06409C6.81593 3.05139 6.8346 3.03939 6.85351 3.0281L6.86246 3.02257C6.88214 3.00988 6.90213 2.9982 6.92245 2.98753L6.93521 2.9803C6.95539 2.96913 6.97577 2.95827 6.99633 2.94773L7.00719 2.9424C7.02775 2.93212 7.04851 2.92215 7.06946 2.9125L7.07384 2.91041C7.09555 2.90051 7.11764 2.89137 7.13973 2.88204L7.15249 2.87689C7.17407 2.86826 7.19584 2.85995 7.2178 2.85195L7.23075 2.84738C7.25341 2.83938 7.27627 2.83176 7.29931 2.82453L7.30407 2.823C7.32654 2.81615 7.34914 2.8098 7.37186 2.80396L7.3831 2.80091C7.40608 2.79495 7.42924 2.78936 7.4526 2.78416L7.4667 2.78111C7.49031 2.77597 7.51392 2.7714 7.53773 2.76721L7.54744 2.76549C7.5708 2.76156 7.59422 2.758 7.61771 2.75483L7.62513 2.75388C7.64951 2.75064 7.67407 2.74816 7.69883 2.74588L7.71292 2.74455C7.7373 2.74251 7.76173 2.74093 7.78624 2.73979H7.79919C7.82489 2.73883 7.85079 2.73807 7.87669 2.73807C7.89205 2.73769 7.90792 2.73769 7.9243 2.73807ZM5.92498 5.41875V4.84994L6.89998 4.2C6.89998 4.2 8.2884 5.08626 9.52105 5.08626C9.62292 5.08668 9.72471 5.08032 9.82574 5.06722V5.41875C9.82574 5.93592 9.62029 6.43191 9.2546 6.79761C8.8889 7.1633 8.39291 7.36875 7.87574 7.36875C7.35857 7.36875 6.86258 7.1633 6.49688 6.79761C6.13118 6.43191 5.92574 5.93592 5.92574 5.41875H5.92498ZM7.87498 7.85625C8.12299 7.85649 8.36958 7.81886 8.60623 7.74466V8.31157L7.87498 8.74956L7.14373 8.31157V7.74466C7.38038 7.81886 7.62697 7.85649 7.87498 7.85625ZM11.1656 11.5125H4.58435C4.55204 11.5124 4.52107 11.4996 4.49823 11.4767C4.47538 11.4539 4.46253 11.4229 4.46248 11.3906C4.46264 10.9285 4.57709 10.4735 4.79564 10.0663C5.0142 9.65912 5.33007 9.31229 5.71512 9.05672L7.87498 10.2937L10.0348 9.05596C10.42 9.3116 10.7359 9.65855 10.9545 10.0659C11.173 10.4733 11.2874 10.9283 11.2875 11.3906C11.2874 11.4229 11.2746 11.4539 11.2517 11.4767C11.2289 11.4996 11.1979 11.5124 11.1656 11.5125Z" fill="white"/>
</g>
<defs>
<clipPath id="clip0">
<rect x="3" y="2.25" width="9.75" height="9.75" fill="white"/>
</clipPath>
</defs>
</svg>
