<svg width="12" height="24" viewBox="0 0 12 24" fill="none" xmlns="http://www.w3.org/2000/svg">
<path d="M3.67019 0.0836673C4.2502 -0.10541 4.91337 0.0381485 5.36033 0.391793C8.119 2.35959 9.9796 5.13973 10.7904 8.09143C11.9587 12.4384 11.1396 17.2494 8.05455 20.9259C7.18142 21.9711 6.15654 22.941 4.95286 23.7253C4.42067 24.0912 3.57041 24.1034 3.06524 23.6903C2.14845 23.004 1.23375 22.316 0.337747 21.6104C-0.123765 21.3041 -0.111289 20.6913 0.368932 20.4042C3.14424 18.2946 4.83645 15.2098 4.90713 12.0585C4.95286 8.97554 3.5912 5.78924 0.799259 3.7269C0.487427 3.4818 0.000967592 3.16667 0.252512 2.75876C0.603843 2.20903 1.26701 1.87465 1.78257 1.44397C2.41871 1.00104 2.95298 0.439062 3.67019 0.0836673Z" fill="#FF560A"/>
</svg>
