<svg width="21" height="21" viewBox="0 0 21 21" fill="none" xmlns="http://www.w3.org/2000/svg">
<path fill-rule="evenodd" clip-rule="evenodd" d="M6.9217 13.2805H6.03295L1.2517 18.073C0.790453 18.5343 0.790453 19.2768 1.2517 19.738L1.26295 19.7493C1.7242 20.2105 2.4667 20.2105 2.92795 19.7493L7.72045 14.968V14.0793L8.0242 13.7643C9.5992 15.1143 11.748 15.8118 14.0317 15.4293C17.1592 14.9005 19.6567 12.2905 20.0392 9.14055C20.613 4.3818 16.6192 0.3768 11.8605 0.9618C8.71045 1.3443 6.10045 3.8418 5.5717 6.9693C5.1892 9.25305 5.8867 11.4018 7.2367 12.9768L6.9217 13.2805ZM17.8455 8.21798C17.8455 11.0192 15.5842 13.2805 12.783 13.2805C9.98172 13.2805 7.72047 11.0192 7.72047 8.21798C7.72047 5.41673 9.98172 3.15548 12.783 3.15548C15.5842 3.15548 17.8455 5.41673 17.8455 8.21798Z" fill="#727272"/>
</svg>
