<svg width="185" height="45" viewBox="0 0 185 45" fill="none" xmlns="http://www.w3.org/2000/svg">
<path d="M14.4122 0.68689C19.211 -0.45476 24.4259 -0.21286 28.996 1.71054C33.3937 3.54249 36.8673 7.27424 38.5729 11.6756C40.1923 15.608 40.3825 19.9327 40.222 24.1276C40.1745 25.1099 39.1701 25.8002 38.2222 25.7324C30.5916 25.7412 22.958 25.7324 15.3274 25.7353C14.0526 25.7501 12.763 25.638 11.5061 25.9035C11.1377 28.4906 12.2014 31.2105 14.1655 32.9363C15.9989 34.603 18.5306 35.3317 20.979 35.3966C23.163 35.4379 25.4184 35.2668 27.4211 34.3316C28.7493 33.7446 29.8904 32.8419 31.076 32.0277C31.5187 31.6884 32.2348 31.4583 32.636 31.9834C34.404 33.6826 36.3205 35.2314 38.0113 37.0014C38.558 37.671 37.7973 38.3967 37.2744 38.7891C32.11 42.5828 25.7036 45.1699 19.1843 44.577C14.3646 44.3115 9.36372 42.863 5.85446 39.4204C2.39275 36.137 0.785205 31.4052 0.247376 26.7826C-0.385538 20.8531 0.0750324 14.543 3.05538 9.24484C5.41766 4.97619 9.64303 1.81379 14.4122 0.68689ZM13.2087 12.2951C11.9637 14.012 11.4526 16.1508 11.3665 18.2394C17.2142 18.2335 23.059 18.2364 28.9038 18.2364C28.7434 16.1301 28.2917 13.953 26.9813 12.2361C23.787 7.96454 16.3674 7.99994 13.2087 12.2951Z" fill="#005ECC"/>
<path d="M131.053 6.66654C131.026 6.11784 131.112 5.33019 131.813 5.27414C133.403 5.20039 134.996 5.24169 136.585 5.25349C137.019 5.23579 137.489 5.61634 137.468 6.06474C137.536 7.54269 137.468 9.02359 137.489 10.5045C138.867 10.5251 140.249 10.4661 141.628 10.5222C142.109 10.4779 142.502 10.9352 142.481 11.3954C142.516 12.6845 142.502 13.9737 142.49 15.2628C142.549 15.723 142.267 16.1685 141.842 16.3455C140.588 16.5225 139.307 16.2688 138.056 16.4871C137.584 16.5933 137.492 17.1715 137.51 17.5756C137.507 20.7321 137.518 23.8916 137.507 27.0481C137.53 28.1307 137.599 29.4022 138.511 30.1426C139.432 30.9391 140.736 30.4819 141.836 30.6736C142.127 30.8359 142.472 31.0955 142.466 31.4642C142.525 32.7563 142.507 34.0543 142.478 35.3464C142.493 35.783 142.127 36.2845 141.649 36.2314C139.108 36.2285 136.306 36.5943 134.069 35.1222C131.947 33.8095 131.073 31.2105 131.064 28.8299C131.041 21.4431 131.067 14.0533 131.053 6.66654Z" fill="#005ECC"/>
<path d="M172.95 5.31838C174.59 5.15613 176.254 5.25938 177.906 5.25938C178.512 5.22398 178.887 5.82873 178.794 6.37743C178.803 13.2686 178.794 20.1598 178.797 27.051C178.839 28.1838 178.884 29.5762 179.95 30.2606C181.08 31.0748 182.663 30.178 183.781 30.9391C184.22 31.83 183.92 32.8891 184.012 33.8478C183.932 34.6207 184.265 35.6444 183.519 36.1842C180.8 36.2491 177.79 36.6533 175.377 35.1134C173.256 33.7977 172.349 31.2017 172.376 28.8122C172.37 21.4372 172.382 14.0622 172.37 6.68718C172.382 6.18863 172.332 5.48358 172.95 5.31838Z" fill="#005ECC"/>
<path d="M79.5816 12.6757C82.4549 9.76994 86.8913 8.90264 90.8254 9.61064C93.8236 10.0797 96.6732 11.7582 98.3194 14.3188C100.301 17.2393 100.705 20.9298 100.402 24.3577C100.263 24.9064 99.6387 25.107 99.1306 25.0509C94.0732 25.0509 89.0159 25.0509 83.9585 25.048C83.5811 25.0745 83.0997 24.9831 82.9185 25.4079C82.8442 27.1779 83.7119 29.0039 85.257 29.9391C87.0577 31.1073 89.3516 31.0837 91.393 30.7179C92.953 30.4229 94.1386 29.3137 95.4876 28.5703C96.7416 29.7414 98.1263 30.7946 99.2495 32.0985C99.2316 32.6796 98.7027 32.9923 98.2927 33.308C95.342 35.3346 91.812 36.7713 88.166 36.5648C84.8083 36.4969 81.2515 35.4467 78.9902 32.8537C76.619 30.1515 75.9505 26.4109 75.9683 22.9299C75.9356 19.2512 76.937 15.372 79.5816 12.6757ZM84.1962 16.667C83.275 17.732 83.0136 19.1598 82.8561 20.5109C86.4218 20.5138 89.9845 20.5109 93.5503 20.5138C93.4997 18.4931 92.6024 16.2806 90.6293 15.4251C88.5256 14.5135 85.7027 14.8174 84.1962 16.667Z" fill="#005ECC"/>
<path d="M110.574 11.888C112.859 10.0679 115.842 8.99114 118.784 9.48674C121.413 9.75814 123.903 11.2066 125.288 13.4633C126.768 15.7348 126.765 18.5462 126.732 21.151C126.726 25.7766 126.732 30.4022 126.732 35.0278C126.798 35.55 126.506 36.2875 125.873 36.2344C124.085 36.2698 122.293 36.2698 120.507 36.2344C120.011 36.2904 119.627 35.7978 119.675 35.3405C119.648 30.5084 119.69 25.6763 119.66 20.8472C119.651 19.0241 119.137 16.9148 117.429 15.9413C115.898 15.1566 113.934 15.2127 112.443 16.0652C111.073 16.844 110.363 18.44 110.392 19.9681C110.374 24.9919 110.395 30.0128 110.386 35.0337C110.446 35.5559 110.181 36.2757 109.542 36.2314C107.754 36.2698 105.959 36.258 104.17 36.2373C103.513 36.2993 103.243 35.55 103.314 35.019C103.32 26.9478 103.308 18.8736 103.32 10.7995C103.243 10.2773 103.641 9.73454 104.182 9.70209C105.371 9.64014 106.565 9.70504 107.76 9.67849C108.577 9.68734 109.48 9.55164 110.166 10.1003C110.199 10.7169 110.054 11.4219 110.574 11.888Z" fill="#005ECC"/>
<path d="M154.946 9.5782C158.134 9.0649 161.578 9.5251 164.336 11.2656C166.873 12.8704 168.573 15.5814 169.203 18.4754C169.657 20.328 169.61 22.2514 169.553 24.1394C169.562 24.7323 168.935 25.1011 168.392 25.0421C164.03 25.0657 159.668 25.0421 155.302 25.0509C154.194 25.0716 153.059 24.9329 151.975 25.2338C152.025 26.7324 152.444 28.3048 153.603 29.3432C155.418 31.0689 158.173 31.1515 160.508 30.7238C162.042 30.4406 163.192 29.3402 164.523 28.6352C164.98 28.7591 165.281 29.175 165.634 29.4671C166.582 30.4406 167.726 31.2253 168.531 32.3315C165.301 35.2225 160.85 36.9483 156.473 36.5235C153.422 36.3258 150.272 35.2638 148.198 32.9422C145.818 30.3167 145.099 26.6439 145.096 23.2101C145.021 19.679 145.841 15.9502 148.213 13.2155C149.9 11.2213 152.373 9.97645 154.946 9.5782ZM152.982 17.1272C152.319 18.1302 152.087 19.3338 151.989 20.5079C155.567 20.5168 159.145 20.5138 162.725 20.5109C162.547 19.2807 162.348 17.9916 161.593 16.962C159.653 14.1831 154.794 14.2392 152.982 17.1272Z" fill="#005ECC"/>
<path d="M49.0471 2.73418C49.8761 2.41558 50.824 2.65748 51.4629 3.25338C55.406 6.56918 58.0654 11.2538 59.2242 16.2275C60.8942 23.5523 59.7234 31.6589 55.3138 37.8539C54.0658 39.6151 52.6009 41.2494 50.8805 42.571C50.1198 43.1875 48.9045 43.2082 48.1824 42.512C46.872 41.3556 45.5646 40.1962 44.2839 39.0074C43.6242 38.4911 43.6421 37.4586 44.3285 36.9748C48.2953 33.4201 50.7141 28.2222 50.8151 22.9122C50.8805 17.7172 48.9342 12.3482 44.9436 8.87313C44.4978 8.46013 43.8025 7.92913 44.1621 7.24178C44.6642 6.31548 45.6121 5.75203 46.349 5.02633C47.2583 4.27998 48.022 3.33303 49.0471 2.73418Z" fill="#FF560A"/>
</svg>
