<svg width="60" height="45" viewBox="0 0 60 45" fill="none" xmlns="http://www.w3.org/2000/svg">
<path d="M14.4122 0.68689C19.211 -0.45476 24.4259 -0.21286 28.996 1.71054C33.3937 3.54249 36.8673 7.27424 38.5729 11.6756C40.1923 15.608 40.3825 19.9327 40.222 24.1276C40.1745 25.1099 39.1701 25.8002 38.2222 25.7324C30.5916 25.7412 22.958 25.7324 15.3274 25.7353C14.0526 25.7501 12.763 25.638 11.5061 25.9035C11.1377 28.4906 12.2014 31.2105 14.1655 32.9363C15.9989 34.603 18.5306 35.3317 20.979 35.3966C23.163 35.4379 25.4184 35.2668 27.4211 34.3316C28.7493 33.7446 29.8904 32.8419 31.076 32.0277C31.5187 31.6884 32.2348 31.4583 32.636 31.9834C34.404 33.6826 36.3205 35.2314 38.0113 37.0014C38.558 37.671 37.7973 38.3967 37.2744 38.7891C32.11 42.5828 25.7036 45.1699 19.1843 44.577C14.3646 44.3115 9.36372 42.863 5.85446 39.4204C2.39275 36.137 0.785205 31.4052 0.247376 26.7826C-0.385538 20.8531 0.0750324 14.543 3.05538 9.24484C5.41766 4.97619 9.64304 1.81379 14.4122 0.68689ZM13.2087 12.2951C11.9637 14.012 11.4526 16.1508 11.3665 18.2394C17.2142 18.2335 23.059 18.2364 28.9038 18.2364C28.7434 16.1301 28.2917 13.953 26.9813 12.2361C23.787 7.96454 16.3674 7.99994 13.2087 12.2951Z" fill="#005ECC"/>
<path d="M49.0471 2.73418C49.8761 2.41558 50.824 2.65748 51.4629 3.25338C55.406 6.56918 58.0654 11.2538 59.2242 16.2275C60.8942 23.5523 59.7234 31.6589 55.3138 37.8539C54.0658 39.6151 52.6009 41.2494 50.8805 42.571C50.1198 43.1875 48.9045 43.2082 48.1824 42.512C46.872 41.3556 45.5646 40.1962 44.2839 39.0074C43.6242 38.4911 43.6421 37.4586 44.3285 36.9748C48.2953 33.4201 50.7141 28.2222 50.8151 22.9122C50.8805 17.7172 48.9342 12.3482 44.9436 8.87313C44.4978 8.46013 43.8025 7.92913 44.1621 7.24178C44.6642 6.31548 45.6121 5.75203 46.349 5.02633C47.2583 4.27998 48.022 3.33303 49.0471 2.73418Z" fill="#FF560A"/>
</svg>
